<?xml version="1.0" encoding="UTF-8" standalone="no"?>
<!-- Created with Inkscape (http://www.inkscape.org/) -->

<svg
   width="184.36166mm"
   height="178.75249mm"
   viewBox="0 0 184.36166 178.75249"
   version="1.1"
   id="svg1"
   inkscape:version="1.3 (0e150ed6c4, 2023-07-21)"
   sodipodi:docname="login.svg"
   xmlns:inkscape="http://www.inkscape.org/namespaces/inkscape"
   xmlns:sodipodi="http://sodipodi.sourceforge.net/DTD/sodipodi-0.dtd"
   xmlns="http://www.w3.org/2000/svg"
   xmlns:svg="http://www.w3.org/2000/svg">
  <sodipodi:namedview
     id="namedview1"
     pagecolor="#ffffff"
     bordercolor="#000000"
     borderopacity="0.25"
     inkscape:showpageshadow="2"
     inkscape:pageopacity="0.0"
     inkscape:pagecheckerboard="0"
     inkscape:deskcolor="#d1d1d1"
     inkscape:document-units="mm"
     inkscape:zoom="0.45344416"
     inkscape:cx="352.85491"
     inkscape:cy="448.78734"
     inkscape:window-width="1366"
     inkscape:window-height="705"
     inkscape:window-x="-8"
     inkscape:window-y="-8"
     inkscape:window-maximized="1"
     inkscape:current-layer="layer1" />
  <defs
     id="defs1" />
  <g
     inkscape:label="Camada 1"
     inkscape:groupmode="layer"
     id="layer1"
     transform="translate(-11.63238,-29.685031)">
    <path
       d="m 180.43654,45.242531 c 20.74333,20.637499 20.74333,54.186665 0,74.824159 -15.98083,15.98084 -39.6875,19.47334 -59.16083,10.68917 l -19.79083,35.03083 -31.644169,3.28084 -15.874999,39.36999 H 22.215713 L 11.63238,187.27086 95.76988,105.88503 c -9.73667,-19.790833 -6.56167,-44.238333 9.8425,-60.642499 20.6375,-20.743333 54.18666,-20.743333 74.82416,0 z m -26.56416,40.110832 c 7.83166,0 14.07583,-6.35 14.07583,-14.181666 0,-7.725833 -6.24417,-14.075833 -14.07583,-14.075833 -7.72584,0 -14.07584,6.35 -14.07584,14.075833 0,7.831666 6.35,14.181666 14.07584,14.181666 z"
       id="path1"
       style="fill:#da291c;fill-opacity:1;stroke-width:10.5833" />
  </g>
</svg>
